{
	"asset":{
		"generator":"Khronos glTF Blender I/O v3.6.28",
		"version":"2.0"
	},
	"scene":0,
	"scenes":[
		{
			"name":"Scene",
			"nodes":[
				0
			]
		}
	],
	"nodes":[
		{
			"mesh":0,
			"name":"Circle",
			"scale":[
				0.27458399534225464,
				0.27458399534225464,
				0.27458399534225464
			],
			"translation":[
				-0.24000003933906555,
				-0.11999998241662979,
				-0.13999998569488525
			]
		}
	],
	"meshes":[
		{
			"name":"Circle",
			"primitives":[
				{
					"attributes":{
						"POSITION":0,
						"NORMAL":1,
						"TEXCOORD_0":2
					},
					"indices":3
				}
			]
		}
	],
	"accessors":[
		{
			"bufferView":0,
			"componentType":5126,
			"count":3360,
			"max":[
				2.359036445617676,
				2.241636276245117,
				1.8443878889083862
			],
			"min":[
				-0.6512119770050049,
				0.49952659010887146,
				-1.165860891342163
			],
			"type":"VEC3"
		},
		{
			"bufferView":1,
			"componentType":5126,
			"count":3360,
			"type":"VEC3"
		},
		{
			"bufferView":2,
			"componentType":5126,
			"count":3360,
			"type":"VEC2"
		},
		{
			"bufferView":3,
			"componentType":5123,
			"count":7680,
			"type":"SCALAR"
		}
	],
	"bufferViews":[
		{
			"buffer":0,
			"byteLength":40320,
			"byteOffset":0,
			"target":34962
		},
		{
			"buffer":0,
			"byteLength":40320,
			"byteOffset":40320,
			"target":34962
		},
		{
			"buffer":0,
			"byteLength":26880,
			"byteOffset":80640,
			"target":34962
		},
		{
			"buffer":0,
			"byteLength":15360,
			"byteOffset":107520,
			"target":34963
		}
	],
	"buffers":[
		{
			"byteLength":122880,
			"uri":"data:application/octet-stream;base64,"
		}
	]
}
