{
	"asset":{
		"generator":"Khronos glTF Blender I/O v3.6.28",
		"version":"2.0"
	},
	"scene":0,
	"scenes":[
		{
			"extras":{
				"font_color":[
					0.523698627948761,
					1.0,
					0.9707467555999756
				]
			},
			"name":"Scene",
			"nodes":[
				0,
				1,
				2,
				3,
				4
			]
		}
	],
	"nodes":[
		{
			"mesh":0,
			"name":"Plane"
		},
		{
			"mesh":1,
			"name":"Plane.001",
			"scale":[
				0.8420000076293945,
				1,
				0.24899998307228088
			],
			"translation":[
				0.008300304412841797,
				5.53794002532959,
				-3.5185000896453857
			]
		},
		{
			"extras":{
				"archipack_material":[
					{
						"category":"truss",
						"material":0
					}
				]
			},
			"mesh":2,
			"name":"Truss",
			"scale":[
				2.4519999027252197,
				3.7119998931884766,
				2.4519999027252197
			],
			"translation":[
				7.012499809265137,
				1.9534000158309937,
				3.1684000492095947
			]
		},
		{
			"extras":{
				"archipack_material":[
					{
						"category":"truss",
						"material":0
					}
				]
			},
			"mesh":3,
			"name":"Truss.003",
			"rotation":[
				-0.7071068286895752,
				0,
				0,
				0.7071068286895752
			],
			"scale":[
				2.4519999027252197,
				3.7119998931884766,
				2.4519999027252197
			],
			"translation":[
				7.012499809265137,
				8.65530014038086,
				3.6610000133514404
			]
		},
		{
			"extras":{
				"archipack_material":[
					{
						"category":"truss",
						"material":0
					}
				]
			},
			"mesh":4,
			"name":"Truss.001",
			"rotation":[
				0,
				0,
				-0.7071066498756409,
				0.70710688829422
			],
			"scale":[
				2.4519999027252197,
				3.7119998931884766,
				2.4519999027252197
			],
			"translation":[
				-7.398620128631592,
				8.74609375,
				2.9944193363189697
			]
		}
	],
	"materials":[
		{
			"doubleSided":true,
			"name":"main stage.001",
			"pbrMetallicRoughness":{
				"baseColorFactor":[
					0.4958459436893463,
					0.35655930638313293,
					0.08796320110559464,
					1
				],
				"metallicFactor":0,
				"roughnessFactor":0.5
			}
		},
		{
			"doubleSided":true,
			"name":"display",
			"pbrMetallicRoughness":{
				"baseColorFactor":[
					0.8000000715255737,
					0.6862787008285522,
					0.47812291979789734,
					1
				],
				"metallicFactor":0,
				"roughnessFactor":0.5
			}
		},
		{
			"doubleSided":true,
			"name":"Truss_truss",
			"pbrMetallicRoughness":{
				"baseColorFactor":[
					0.800000011920929,
					0.800000011920929,
					0.800000011920929,
					1
				],
				"metallicFactor":0,
				"roughnessFactor":0.4000000059604645
			}
		}
	],
	"meshes":[
		{
			"name":"Plane",
			"primitives":[
				{
					"attributes":{
						"POSITION":0,
						"NORMAL":1,
						"TEXCOORD_0":2
					},
					"indices":3,
					"material":0
				}
			]
		},
		{
			"name":"Plane.002",
			"primitives":[
				{
					"attributes":{
						"POSITION":4,
						"NORMAL":5,
						"TEXCOORD_0":6,
						"TANGENT":7
					},
					"indices":8,
					"material":0
				},
				{
					"attributes":{
						"POSITION":9,
						"NORMAL":10,
						"TEXCOORD_0":11,
						"TANGENT":12
					},
					"indices":13,
					"material":1
				}
			]
		},
		{
			"extras":{
				"archipack_truss":[
					{
						"auto_update":1,
						"manipulators":[
							{
								"prop1_name":"z",
								"type_key":"SIZE",
								"normal":[
									0.0,
									1.0,
									0.0
								],
								"p0":[
									0.0,
									0.0,
									0.0
								],
								"p1":[
									0.0,
									0.0,
									2.0
								],
								"p2":[
									1.0,
									0.0,
									0.0
								],
								"pts_mode":"SIZE"
							}
						],
						"select_mode":0,
						"manipulate_mode":0
					}
				]
			},
			"name":"Truss",
			"primitives":[
				{
					"attributes":{
						"POSITION":14,
						"NORMAL":15
					},
					"indices":16,
					"material":2
				}
			]
		},
		{
			"extras":{
				"archipack_truss":[
					{
						"auto_update":1,
						"manipulators":[
							{
								"prop1_name":"z",
								"type_key":"SIZE",
								"normal":[
									0.0,
									1.0,
									0.0
								],
								"p0":[
									0.0,
									0.0,
									0.0
								],
								"p1":[
									0.0,
									0.0,
									2.0
								],
								"p2":[
									1.0,
									0.0,
									0.0
								],
								"pts_mode":"SIZE"
							}
						],
						"select_mode":0,
						"manipulate_mode":0
					}
				]
			},
			"name":"Truss.003",
			"primitives":[
				{
					"attributes":{
						"POSITION":17,
						"NORMAL":18
					},
					"indices":16,
					"material":2
				}
			]
		},
		{
			"extras":{
				"archipack_truss":[
					{
						"auto_update":1,
						"manipulators":[
							{
								"prop1_name":"z",
								"type_key":"SIZE",
								"normal":[
									0.0,
									1.0,
									0.0
								],
								"p0":[
									0.0,
									0.0,
									0.0
								],
								"p1":[
									0.0,
									0.0,
									2.0
								],
								"p2":[
									1.0,
									0.0,
									0.0
								],
								"pts_mode":"SIZE"
							}
						],
						"select_mode":0,
						"manipulate_mode":0
					}
				]
			},
			"name":"Truss.004",
			"primitives":[
				{
					"attributes":{
						"POSITION":19,
						"NORMAL":20
					},
					"indices":21,
					"material":2
				}
			]
		}
	],
	"accessors":[
		{
			"bufferView":0,
			"componentType":5126,
			"count":238,
			"max":[
				7.576000213623047,
				1.9534002542495728,
				5.997200012207031
			],
			"min":[
				-7.576000213623047,
				0,
				-3.809000015258789
			],
			"type":"VEC3"
		},
		{
			"bufferView":1,
			"componentType":5126,
			"count":238,
			"type":"VEC3"
		},
		{
			"bufferView":2,
			"componentType":5126,
			"count":238,
			"type":"VEC2"
		},
		{
			"bufferView":3,
			"componentType":5123,
			"count":402,
			"type":"SCALAR"
		},
		{
			"bufferView":4,
			"componentType":5126,
			"count":158,
			"max":[
				8.7267484664917,
				3.646939754486084,
				2.8481123447418213
			],
			"min":[
				-8.7267484664917,
				-3.646939754486084,
				-1
			],
			"type":"VEC3"
		},
		{
			"bufferView":5,
			"componentType":5126,
			"count":158,
			"type":"VEC3"
		},
		{
			"bufferView":6,
			"componentType":5126,
			"count":158,
			"type":"VEC2"
		},
		{
			"bufferView":7,
			"componentType":5126,
			"count":158,
			"type":"VEC4"
		},
		{
			"bufferView":8,
			"componentType":5123,
			"count":294,
			"type":"SCALAR"
		},
		{
			"bufferView":9,
			"componentType":5126,
			"count":4,
			"max":[
				3.000107526779175,
				3.1941394805908203,
				1.8572287559509277
			],
			"min":[
				-3.000107526779175,
				-3.1941394805908203,
				1.8572287559509277
			],
			"type":"VEC3"
		},
		{
			"bufferView":10,
			"componentType":5126,
			"count":4,
			"type":"VEC3"
		},
		{
			"bufferView":11,
			"componentType":5126,
			"count":4,
			"type":"VEC2"
		},
		{
			"bufferView":12,
			"componentType":5126,
			"count":4,
			"type":"VEC4"
		},
		{
			"bufferView":13,
			"componentType":5123,
			"count":6,
			"type":"SCALAR"
		},
		{
			"bufferView":14,
			"componentType":5126,
			"count":540,
			"max":[
				0.1441311091184616,
				2,
				0.16261784732341766
			],
			"min":[
				-5.863952159881592,
				0,
				-0.09362447261810303
			],
			"type":"VEC3"
		},
		{
			"bufferView":15,
			"componentType":5126,
			"count":540,
			"type":"VEC3"
		},
		{
			"bufferView":16,
			"componentType":5123,
			"count":2376,
			"type":"SCALAR"
		},
		{
			"bufferView":17,
			"componentType":5126,
			"count":540,
			"max":[
				0.1441311091184616,
				2,
				0.1626182645559311
			],
			"min":[
				-5.863952159881592,
				0,
				-0.09362446516752243
			],
			"type":"VEC3"
		},
		{
			"bufferView":18,
			"componentType":5126,
			"count":540,
			"type":"VEC3"
		},
		{
			"bufferView":19,
			"componentType":5126,
			"count":540,
			"max":[
				0.1441311091184616,
				4,
				0.16261783242225647
			],
			"min":[
				-0.1441311091184616,
				0,
				-0.09362446516752243
			],
			"type":"VEC3"
		},
		{
			"bufferView":20,
			"componentType":5126,
			"count":540,
			"type":"VEC3"
		},
		{
			"bufferView":21,
			"componentType":5123,
			"count":2376,
			"type":"SCALAR"
		}
	],
	"bufferViews":[
		{
			"buffer":0,
			"byteLength":2856,
			"byteOffset":0,
			"target":34962
		},
		{
			"buffer":0,
			"byteLength":2856,
			"byteOffset":2856,
			"target":34962
		},
		{
			"buffer":0,
			"byteLength":1904,
			"byteOffset":5712,
			"target":34962
		},
		{
			"buffer":0,
			"byteLength":804,
			"byteOffset":7616,
			"target":34963
		},
		{
			"buffer":0,
			"byteLength":1896,
			"byteOffset":8420,
			"target":34962
		},
		{
			"buffer":0,
			"byteLength":1896,
			"byteOffset":10316,
			"target":34962
		},
		{
			"buffer":0,
			"byteLength":1264,
			"byteOffset":12212,
			"target":34962
		},
		{
			"buffer":0,
			"byteLength":2528,
			"byteOffset":13476,
			"target":34962
		},
		{
			"buffer":0,
			"byteLength":588,
			"byteOffset":16004,
			"target":34963
		},
		{
			"buffer":0,
			"byteLength":48,
			"byteOffset":16592,
			"target":34962
		},
		{
			"buffer":0,
			"byteLength":48,
			"byteOffset":16640,
			"target":34962
		},
		{
			"buffer":0,
			"byteLength":32,
			"byteOffset":16688,
			"target":34962
		},
		{
			"buffer":0,
			"byteLength":64,
			"byteOffset":16720,
			"target":34962
		},
		{
			"buffer":0,
			"byteLength":12,
			"byteOffset":16784,
			"target":34963
		},
		{
			"buffer":0,
			"byteLength":6480,
			"byteOffset":16796,
			"target":34962
		},
		{
			"buffer":0,
			"byteLength":6480,
			"byteOffset":23276,
			"target":34962
		},
		{
			"buffer":0,
			"byteLength":4752,
			"byteOffset":29756,
			"target":34963
		},
		{
			"buffer":0,
			"byteLength":6480,
			"byteOffset":34508,
			"target":34962
		},
		{
			"buffer":0,
			"byteLength":6480,
			"byteOffset":40988,
			"target":34962
		},
		{
			"buffer":0,
			"byteLength":6480,
			"byteOffset":47468,
			"target":34962
		},
		{
			"buffer":0,
			"byteLength":6480,
			"byteOffset":53948,
			"target":34962
		},
		{
			"buffer":0,
			"byteLength":4752,
			"byteOffset":60428,
			"target":34963
		}
	],
	"buffers":[
		{
			"byteLength":65180,
			"uri":"data:application/octet-stream;base64,"
		}
	]
}
